<svg xmlns="http://www.w3.org/2000/svg" viewBox="0 0 1200 800" role="img" aria-labelledby="title desc">
  <title id="title">Original illustration of a welcoming community gathering</title>
  <desc id="desc">A stylized group of diverse people gathered under warm lights with subtle rainbow and gold accents.</desc>
  <defs>
    <linearGradient id="bg" x1="0" x2="1" y1="0" y2="1">
      <stop offset="0" stop-color="#0b1f3a"/>
      <stop offset="0.55" stop-color="#14345a"/>
      <stop offset="1" stop-color="#061323"/>
    </linearGradient>
    <linearGradient id="gold" x1="0" x2="1">
      <stop offset="0" stop-color="#d4af37"/>
      <stop offset="1" stop-color="#efcd72"/>
    </linearGradient>
    <linearGradient id="rainbow" x1="0" x2="1">
      <stop offset="0" stop-color="#e63946"/>
      <stop offset="0.2" stop-color="#f4a261"/>
      <stop offset="0.4" stop-color="#e9c46a"/>
      <stop offset="0.6" stop-color="#2ecc71"/>
      <stop offset="0.8" stop-color="#3a86ff"/>
      <stop offset="1" stop-color="#9b5de5"/>
    </linearGradient>
    <filter id="soft" x="-20%" y="-20%" width="140%" height="140%">
      <feGaussianBlur stdDeviation="18"/>
    </filter>
  </defs>
  <rect width="1200" height="800" fill="url(#bg)"/>
  <circle cx="930" cy="170" r="170" fill="#efcd72" opacity="0.22" filter="url(#soft)"/>
  <circle cx="260" cy="210" r="150" fill="#9b5de5" opacity="0.14" filter="url(#soft)"/>
  <path d="M0 590 C160 520 280 610 440 555 C620 493 730 620 900 562 C1040 516 1120 535 1200 500 L1200 800 L0 800 Z" fill="#071827" opacity="0.88"/>
  <path d="M110 530 C250 470 360 525 520 500 C705 470 820 528 1005 488 C1090 470 1150 475 1200 452" fill="none" stroke="url(#rainbow)" stroke-width="10" opacity="0.8" stroke-linecap="round"/>
  <g opacity="0.26" stroke="#fffaf0" stroke-width="2">
    <path d="M90 110 H1110"/>
    <path d="M150 170 H1050"/>
    <path d="M210 230 H990"/>
  </g>
  <g>
    <path d="M155 145 L250 90 L345 145" fill="none" stroke="url(#gold)" stroke-width="8" stroke-linecap="round" stroke-linejoin="round" opacity="0.72"/>
    <path d="M855 145 L950 90 L1045 145" fill="none" stroke="url(#gold)" stroke-width="8" stroke-linecap="round" stroke-linejoin="round" opacity="0.72"/>
    <circle cx="250" cy="88" r="8" fill="#efcd72"/>
    <circle cx="950" cy="88" r="8" fill="#efcd72"/>
  </g>
  <g transform="translate(0 20)">
    <g transform="translate(210 280)">
      <circle cx="0" cy="0" r="54" fill="#b8755b"/>
      <path d="M-78 170 C-64 80 64 80 78 170 Z" fill="#f5f1e8"/>
      <path d="M-95 310 C-86 210 86 210 95 310 Z" fill="#d4af37" opacity="0.92"/>
      <path d="M-78 170 C-24 205 24 205 78 170" fill="none" stroke="#061323" stroke-width="8" opacity="0.45"/>
    </g>
    <g transform="translate(395 252)">
      <circle cx="0" cy="0" r="58" fill="#6f4a3b"/>
      <path d="M-82 180 C-72 78 72 78 82 180 Z" fill="#14345a"/>
      <path d="M-100 322 C-86 215 86 215 100 322 Z" fill="#2ecc71" opacity="0.82"/>
    </g>
    <g transform="translate(600 240)">
      <circle cx="0" cy="0" r="62" fill="#8f5f46"/>
      <path d="M-86 190 C-80 82 80 82 86 190 Z" fill="#fffaf0"/>
      <path d="M-112 336 C-92 215 92 215 112 336 Z" fill="#9b5de5" opacity="0.86"/>
      <path d="M-62 174 C-22 205 28 205 68 174" fill="none" stroke="#d4af37" stroke-width="10" opacity="0.75"/>
    </g>
    <g transform="translate(805 260)">
      <circle cx="0" cy="0" r="56" fill="#c28b63"/>
      <path d="M-82 178 C-70 80 70 80 82 178 Z" fill="#0b1f3a"/>
      <path d="M-103 320 C-88 213 88 213 103 320 Z" fill="#3a86ff" opacity="0.86"/>
    </g>
    <g transform="translate(980 290)">
      <circle cx="0" cy="0" r="52" fill="#9f6e4c"/>
      <path d="M-78 166 C-66 78 66 78 78 166 Z" fill="#f5f1e8"/>
      <path d="M-95 300 C-82 202 82 202 95 300 Z" fill="#e63946" opacity="0.82"/>
    </g>
  </g>
  <g fill="#f5f1e8" opacity="0.82">
    <path d="M582 570 C582 548 618 548 618 570 C618 594 582 602 582 570Z"/>
    <path d="M600 588 C548 548 494 517 454 492 C516 514 566 532 600 564 C634 532 684 514 746 492 C706 517 652 548 600 588Z" fill="#d4af37" opacity="0.85"/>
  </g>
</svg>
