<svg xmlns="http://www.w3.org/2000/svg" viewBox="0 0 1200 800" role="img" aria-labelledby="title desc">
  <title id="title">Original illustration of Pride outreach and community resources</title>
  <desc id="desc">A stylized outreach table with people, Pride colors, resources, and warm community lights.</desc>
  <defs>
    <linearGradient id="bg" x1="0" y1="0" x2="1" y2="1">
      <stop offset="0" stop-color="#061323"/>
      <stop offset="0.52" stop-color="#12345a"/>
      <stop offset="1" stop-color="#0b1f3a"/>
    </linearGradient>
    <linearGradient id="rainbow" x1="0" x2="1">
      <stop offset="0" stop-color="#e63946"/>
      <stop offset="0.2" stop-color="#f4a261"/>
      <stop offset="0.4" stop-color="#e9c46a"/>
      <stop offset="0.6" stop-color="#2ecc71"/>
      <stop offset="0.8" stop-color="#3a86ff"/>
      <stop offset="1" stop-color="#9b5de5"/>
    </linearGradient>
    <linearGradient id="gold" x1="0" x2="1">
      <stop offset="0" stop-color="#d4af37"/>
      <stop offset="1" stop-color="#efcd72"/>
    </linearGradient>
    <filter id="blur" x="-20%" y="-20%" width="140%" height="140%">
      <feGaussianBlur stdDeviation="20"/>
    </filter>
  </defs>
  <rect width="1200" height="800" fill="url(#bg)"/>
  <circle cx="220" cy="155" r="155" fill="#3a86ff" opacity="0.18" filter="url(#blur)"/>
  <circle cx="1000" cy="210" r="180" fill="#efcd72" opacity="0.2" filter="url(#blur)"/>
  <path d="M0 610 C160 570 230 610 380 575 C525 540 650 598 810 555 C965 515 1085 545 1200 510 L1200 800 L0 800 Z" fill="#071827" opacity="0.92"/>
  <rect x="135" y="510" width="930" height="170" rx="26" fill="#f5f1e8" opacity="0.96"/>
  <rect x="135" y="510" width="930" height="32" rx="16" fill="url(#rainbow)" opacity="0.9"/>
  <rect x="250" y="555" width="150" height="72" rx="12" fill="#0b1f3a" opacity="0.92"/>
  <rect x="430" y="555" width="150" height="72" rx="12" fill="#14345a" opacity="0.92"/>
  <rect x="610" y="555" width="150" height="72" rx="12" fill="#0b1f3a" opacity="0.92"/>
  <rect x="790" y="555" width="150" height="72" rx="12" fill="#14345a" opacity="0.92"/>
  <path d="M276 585 H374 M276 604 H342" stroke="#efcd72" stroke-width="8" stroke-linecap="round"/>
  <path d="M456 585 H554 M456 604 H522" stroke="#efcd72" stroke-width="8" stroke-linecap="round"/>
  <path d="M636 585 H734 M636 604 H702" stroke="#efcd72" stroke-width="8" stroke-linecap="round"/>
  <path d="M816 585 H914 M816 604 H882" stroke="#efcd72" stroke-width="8" stroke-linecap="round"/>
  <g transform="translate(168 250)">
    <circle cx="0" cy="0" r="52" fill="#b8755b"/>
    <path d="M-78 168 C-68 72 68 72 78 168 Z" fill="#efcd72"/>
    <path d="M-94 292 C-82 195 82 195 94 292 Z" fill="#9b5de5" opacity="0.86"/>
  </g>
  <g transform="translate(355 220)">
    <circle cx="0" cy="0" r="58" fill="#7b4e38"/>
    <path d="M-84 180 C-74 78 74 78 84 180 Z" fill="#f5f1e8"/>
    <path d="M-104 310 C-88 206 88 206 104 310 Z" fill="#2ecc71" opacity="0.86"/>
  </g>
  <g transform="translate(840 235)">
    <circle cx="0" cy="0" r="56" fill="#c58c64"/>
    <path d="M-82 174 C-70 76 70 76 82 174 Z" fill="#0b1f3a"/>
    <path d="M-104 310 C-88 206 88 206 104 310 Z" fill="#3a86ff" opacity="0.88"/>
  </g>
  <g transform="translate(1030 270)">
    <circle cx="0" cy="0" r="50" fill="#8f5f46"/>
    <path d="M-76 158 C-66 72 66 72 76 158 Z" fill="#f5f1e8"/>
    <path d="M-92 286 C-78 192 78 192 92 286 Z" fill="#e63946" opacity="0.84"/>
  </g>
  <g transform="translate(600 245)">
    <path d="M-160 70 C-95 10 -25 20 0 80 C28 16 105 10 160 72 C105 95 42 104 0 98 C-42 104 -105 94 -160 70Z" fill="url(#gold)" opacity="0.9"/>
    <path d="M0 98 V300" stroke="#d4af37" stroke-width="9" stroke-linecap="round"/>
    <path d="M-135 296 H135" stroke="#d4af37" stroke-width="9" stroke-linecap="round"/>
  </g>
  <g opacity="0.78">
    <path d="M132 140 C280 95 415 148 555 112 C710 72 825 135 1038 95" fill="none" stroke="url(#rainbow)" stroke-width="11" stroke-linecap="round"/>
    <circle cx="132" cy="140" r="8" fill="#efcd72"/>
    <circle cx="1038" cy="95" r="8" fill="#efcd72"/>
  </g>
</svg>
